<svg id="visual" viewBox="0 0 900 300" width="900" height="300" xmlns="http://www.w3.org/2000/svg" xmlns:xlink="http://www.w3.org/1999/xlink" version="1.1"><rect x="0" y="0" width="900" height="300" fill="#202731"></rect><path d="M0 25L16.7 27.3C33.3 29.7 66.7 34.3 100 46.5C133.3 58.7 166.7 78.3 200 79.2C233.3 80 266.7 62 300 56.7C333.3 51.3 366.7 58.7 400 57.8C433.3 57 466.7 48 500 44C533.3 40 566.7 41 600 41.5C633.3 42 666.7 42 700 40.8C733.3 39.7 766.7 37.3 800 37.7C833.3 38 866.7 41 883.3 42.5L900 44L900 301L883.3 301C866.7 301 833.3 301 800 301C766.7 301 733.3 301 700 301C666.7 301 633.3 301 600 301C566.7 301 533.3 301 500 301C466.7 301 433.3 301 400 301C366.7 301 333.3 301 300 301C266.7 301 233.3 301 200 301C166.7 301 133.3 301 100 301C66.7 301 33.3 301 16.7 301L0 301Z" fill="#333353"></path><path d="M0 103L16.7 98.5C33.3 94 66.7 85 100 83.5C133.3 82 166.7 88 200 96C233.3 104 266.7 114 300 110.8C333.3 107.7 366.7 91.3 400 95C433.3 98.7 466.7 122.3 500 128.2C533.3 134 566.7 122 600 121.7C633.3 121.3 666.7 132.7 700 136C733.3 139.3 766.7 134.7 800 130.5C833.3 126.3 866.7 122.7 883.3 120.8L900 119L900 301L883.3 301C866.7 301 833.3 301 800 301C766.7 301 733.3 301 700 301C666.7 301 633.3 301 600 301C566.7 301 533.3 301 500 301C466.7 301 433.3 301 400 301C366.7 301 333.3 301 300 301C266.7 301 233.3 301 200 301C166.7 301 133.3 301 100 301C66.7 301 33.3 301 16.7 301L0 301Z" fill="#523765"></path><path d="M0 176L16.7 168C33.3 160 66.7 144 100 138.3C133.3 132.7 166.7 137.3 200 142C233.3 146.7 266.7 151.3 300 157.2C333.3 163 366.7 170 400 170.8C433.3 171.7 466.7 166.3 500 166C533.3 165.7 566.7 170.3 600 167.5C633.3 164.7 666.7 154.3 700 156.8C733.3 159.3 766.7 174.7 800 182.2C833.3 189.7 866.7 189.3 883.3 189.2L900 189L900 301L883.3 301C866.7 301 833.3 301 800 301C766.7 301 733.3 301 700 301C666.7 301 633.3 301 600 301C566.7 301 533.3 301 500 301C466.7 301 433.3 301 400 301C366.7 301 333.3 301 300 301C266.7 301 233.3 301 200 301C166.7 301 133.3 301 100 301C66.7 301 33.3 301 16.7 301L0 301Z" fill="#79356d"></path><path d="M0 183L16.7 189.3C33.3 195.7 66.7 208.3 100 210C133.3 211.7 166.7 202.3 200 195.2C233.3 188 266.7 183 300 183.2C333.3 183.3 366.7 188.7 400 190.3C433.3 192 466.7 190 500 189.3C533.3 188.7 566.7 189.3 600 188.2C633.3 187 666.7 184 700 186.8C733.3 189.7 766.7 198.3 800 205.5C833.3 212.7 866.7 218.3 883.3 221.2L900 224L900 301L883.3 301C866.7 301 833.3 301 800 301C766.7 301 733.3 301 700 301C666.7 301 633.3 301 600 301C566.7 301 533.3 301 500 301C466.7 301 433.3 301 400 301C366.7 301 333.3 301 300 301C266.7 301 233.3 301 200 301C166.7 301 133.3 301 100 301C66.7 301 33.3 301 16.7 301L0 301Z" fill="#a12f68"></path><path d="M0 269L16.7 271.3C33.3 273.7 66.7 278.3 100 275.7C133.3 273 166.7 263 200 253.3C233.3 243.7 266.7 234.3 300 238.5C333.3 242.7 366.7 260.3 400 268.8C433.3 277.3 466.7 276.7 500 273.3C533.3 270 566.7 264 600 260.8C633.3 257.7 666.7 257.3 700 254.3C733.3 251.3 766.7 245.7 800 246.5C833.3 247.3 866.7 254.7 883.3 258.3L900 262L900 301L883.3 301C866.7 301 833.3 301 800 301C766.7 301 733.3 301 700 301C666.7 301 633.3 301 600 301C566.7 301 533.3 301 500 301C466.7 301 433.3 301 400 301C366.7 301 333.3 301 300 301C266.7 301 233.3 301 200 301C166.7 301 133.3 301 100 301C66.7 301 33.3 301 16.7 301L0 301Z" fill="#c32c56"></path></svg>