<svg id="visual" viewBox="0 0 900 300" width="900" height="300" xmlns="http://www.w3.org/2000/svg" xmlns:xlink="http://www.w3.org/1999/xlink" version="1.1"><rect x="0" y="0" width="900" height="300" fill="#202731"></rect><path d="M0 96L21.5 86.7C43 77.3 86 58.7 128.8 54.3C171.7 50 214.3 60 257.2 75.8C300 91.7 343 113.3 385.8 123.5C428.7 133.7 471.3 132.3 514.2 121.3C557 110.3 600 89.7 642.8 89.8C685.7 90 728.3 111 771.2 117.7C814 124.3 857 116.7 878.5 112.8L900 109L900 301L878.5 301C857 301 814 301 771.2 301C728.3 301 685.7 301 642.8 301C600 301 557 301 514.2 301C471.3 301 428.7 301 385.8 301C343 301 300 301 257.2 301C214.3 301 171.7 301 128.8 301C86 301 43 301 21.5 301L0 301Z" fill="#3b3559"></path><path d="M0 159L21.5 148.3C43 137.7 86 116.3 128.8 116.7C171.7 117 214.3 139 257.2 144.7C300 150.3 343 139.7 385.8 137.7C428.7 135.7 471.3 142.3 514.2 140.5C557 138.7 600 128.3 642.8 127C685.7 125.7 728.3 133.3 771.2 134.7C814 136 857 131 878.5 128.5L900 126L900 301L878.5 301C857 301 814 301 771.2 301C728.3 301 685.7 301 642.8 301C600 301 557 301 514.2 301C471.3 301 428.7 301 385.8 301C343 301 300 301 257.2 301C214.3 301 171.7 301 128.8 301C86 301 43 301 21.5 301L0 301Z" fill="#66376b"></path><path d="M0 184L21.5 184.2C43 184.3 86 184.7 128.8 189.5C171.7 194.3 214.3 203.7 257.2 208.5C300 213.3 343 213.7 385.8 200C428.7 186.3 471.3 158.7 514.2 147.8C557 137 600 143 642.8 155.5C685.7 168 728.3 187 771.2 188.3C814 189.7 857 173.3 878.5 165.2L900 157L900 301L878.5 301C857 301 814 301 771.2 301C728.3 301 685.7 301 642.8 301C600 301 557 301 514.2 301C471.3 301 428.7 301 385.8 301C343 301 300 301 257.2 301C214.3 301 171.7 301 128.8 301C86 301 43 301 21.5 301L0 301Z" fill="#98316a"></path><path d="M0 222L21.5 223.3C43 224.7 86 227.3 128.8 222.8C171.7 218.3 214.3 206.7 257.2 205.7C300 204.7 343 214.3 385.8 215.7C428.7 217 471.3 210 514.2 207.2C557 204.3 600 205.7 642.8 213C685.7 220.3 728.3 233.7 771.2 229.8C814 226 857 205 878.5 194.5L900 184L900 301L878.5 301C857 301 814 301 771.2 301C728.3 301 685.7 301 642.8 301C600 301 557 301 514.2 301C471.3 301 428.7 301 385.8 301C343 301 300 301 257.2 301C214.3 301 171.7 301 128.8 301C86 301 43 301 21.5 301L0 301Z" fill="#c32c56"></path><path d="M0 229L21.5 233.7C43 238.3 86 247.7 128.8 250.7C171.7 253.7 214.3 250.3 257.2 244.7C300 239 343 231 385.8 227.8C428.7 224.7 471.3 226.3 514.2 235.2C557 244 600 260 642.8 259.3C685.7 258.7 728.3 241.3 771.2 232.5C814 223.7 857 223.3 878.5 223.2L900 223L900 301L878.5 301C857 301 814 301 771.2 301C728.3 301 685.7 301 642.8 301C600 301 557 301 514.2 301C471.3 301 428.7 301 385.8 301C343 301 300 301 257.2 301C214.3 301 171.7 301 128.8 301C86 301 43 301 21.5 301L0 301Z" fill="#dd3f31"></path></svg>