<svg id="visual" viewBox="0 0 900 300" width="900" height="300" xmlns="http://www.w3.org/2000/svg" xmlns:xlink="http://www.w3.org/1999/xlink" version="1.1"><rect x="0" y="0" width="900" height="300" fill="#3c31dd"></rect><path d="M0 65L21.5 62.7C43 60.3 86 55.7 128.8 66.7C171.7 77.7 214.3 104.3 257.2 109.7C300 115 343 99 385.8 100.3C428.7 101.7 471.3 120.3 514.2 128.2C557 136 600 133 642.8 122.2C685.7 111.3 728.3 92.7 771.2 86.2C814 79.7 857 85.3 878.5 88.2L900 91L900 301L878.5 301C857 301 814 301 771.2 301C728.3 301 685.7 301 642.8 301C600 301 557 301 514.2 301C471.3 301 428.7 301 385.8 301C343 301 300 301 257.2 301C214.3 301 171.7 301 128.8 301C86 301 43 301 21.5 301L0 301Z" fill="#043ab7"></path><path d="M0 130L21.5 125.5C43 121 86 112 128.8 115C171.7 118 214.3 133 257.2 137.3C300 141.7 343 135.3 385.8 137.8C428.7 140.3 471.3 151.7 514.2 152.7C557 153.7 600 144.3 642.8 142C685.7 139.7 728.3 144.3 771.2 141.3C814 138.3 857 127.7 878.5 122.3L900 117L900 301L878.5 301C857 301 814 301 771.2 301C728.3 301 685.7 301 642.8 301C600 301 557 301 514.2 301C471.3 301 428.7 301 385.8 301C343 301 300 301 257.2 301C214.3 301 171.7 301 128.8 301C86 301 43 301 21.5 301L0 301Z" fill="#003a97"></path><path d="M0 184L21.5 178C43 172 86 160 128.8 156.5C171.7 153 214.3 158 257.2 157.3C300 156.7 343 150.3 385.8 148.5C428.7 146.7 471.3 149.3 514.2 152.3C557 155.3 600 158.7 642.8 164.3C685.7 170 728.3 178 771.2 184.2C814 190.3 857 194.7 878.5 196.8L900 199L900 301L878.5 301C857 301 814 301 771.2 301C728.3 301 685.7 301 642.8 301C600 301 557 301 514.2 301C471.3 301 428.7 301 385.8 301C343 301 300 301 257.2 301C214.3 301 171.7 301 128.8 301C86 301 43 301 21.5 301L0 301Z" fill="#003676"></path><path d="M0 219L21.5 222.2C43 225.3 86 231.7 128.8 230.3C171.7 229 214.3 220 257.2 216.5C300 213 343 215 385.8 219.8C428.7 224.7 471.3 232.3 514.2 232.3C557 232.3 600 224.7 642.8 215C685.7 205.3 728.3 193.7 771.2 193.5C814 193.3 857 204.7 878.5 210.3L900 216L900 301L878.5 301C857 301 814 301 771.2 301C728.3 301 685.7 301 642.8 301C600 301 557 301 514.2 301C471.3 301 428.7 301 385.8 301C343 301 300 301 257.2 301C214.3 301 171.7 301 128.8 301C86 301 43 301 21.5 301L0 301Z" fill="#133053"></path><path d="M0 238L21.5 239.2C43 240.3 86 242.7 128.8 248.2C171.7 253.7 214.3 262.3 257.2 266C300 269.7 343 268.3 385.8 268C428.7 267.7 471.3 268.3 514.2 267.5C557 266.7 600 264.3 642.8 260C685.7 255.7 728.3 249.3 771.2 248.8C814 248.3 857 253.7 878.5 256.3L900 259L900 301L878.5 301C857 301 814 301 771.2 301C728.3 301 685.7 301 642.8 301C600 301 557 301 514.2 301C471.3 301 428.7 301 385.8 301C343 301 300 301 257.2 301C214.3 301 171.7 301 128.8 301C86 301 43 301 21.5 301L0 301Z" fill="#202731"></path></svg>