<?xml version="1.0" encoding="UTF-8" standalone="no" ?>
<!DOCTYPE svg PUBLIC "-//W3C//DTD SVG 1.1//EN" "http://www.w3.org/Graphics/SVG/1.1/DTD/svg11.dtd">
<svg xmlns="http://www.w3.org/2000/svg" xmlns:xlink="http://www.w3.org/1999/xlink" version="1.1" width="1080" height="1080" viewBox="0 0 1080 1080" xml:space="preserve">
<desc>Created with Fabric.js 5.2.4</desc>
<defs>
</defs>
<rect x="0" y="0" width="100%" height="100%" fill="transparent"></rect>
<g transform="matrix(1 0 0 1 540 540)" id="0255b311-ee48-404e-8ad2-b57091b12ce7"  >
<rect style="stroke: none; stroke-width: 1; stroke-dasharray: none; stroke-linecap: butt; stroke-dashoffset: 0; stroke-linejoin: miter; stroke-miterlimit: 4; fill: rgb(255,255,255); fill-rule: nonzero; opacity: 1; visibility: hidden;" vector-effect="non-scaling-stroke"  x="-540" y="-540" rx="0" ry="0" width="1080" height="1080" />
</g>
<g transform="matrix(1 0 0 1 540 540)" id="d818ea40-348f-4231-bfa1-8e4725020a52"  >
</g>
<g transform="matrix(1 0 0 1 540 540)"  >
<rect style="stroke: none; stroke-width: 1; stroke-dasharray: none; stroke-linecap: butt; stroke-dashoffset: 0; stroke-linejoin: miter; stroke-miterlimit: 4; visibility: hidden;" vector-effect="non-scaling-stroke"  x="-540" y="-540" rx="0" ry="0" width="1080" height="1080" />
</g>
<g transform="matrix(40.34 0 0 40.14 539.96 540.14)"  >
<path style="stroke-width: 0; stroke-dasharray: none; stroke-linecap: butt; stroke-dashoffset: 0; stroke-linejoin: miter; stroke-miterlimit: 4;" vector-effect="non-scaling-stroke"  transform=" translate(-14, -13.9)" d="M 16.909 10.259 L 25.442 7.683 L 27.118 12.838999999999999 L 18.619999999999997 15.738 L 23.894999999999996 23.218 L 19.447999999999997 26.443 L 13.894999999999996 19.095000000000002 L 8.487 26.25 L 4.1690000000000005 22.961 L 9.444 15.738 L 0.88 12.647 L 2.558 7.487 L 11.156 10.258 L 11.156 1.364 L 16.91 1.364 L 16.91 10.259 z" stroke-linecap="round" />
</g>
</svg>