<svg id="visual" viewBox="0 0 900 300" width="900" height="300" xmlns="http://www.w3.org/2000/svg" xmlns:xlink="http://www.w3.org/1999/xlink" version="1.1"><rect x="0" y="0" width="900" height="300" fill="#d100a4"></rect><path d="M0 20L16.7 21.8C33.3 23.7 66.7 27.3 100 30.3C133.3 33.3 166.7 35.7 200 40.8C233.3 46 266.7 54 300 58C333.3 62 366.7 62 400 63.2C433.3 64.3 466.7 66.7 500 65.7C533.3 64.7 566.7 60.3 600 53.3C633.3 46.3 666.7 36.7 700 32.5C733.3 28.3 766.7 29.7 800 31.2C833.3 32.7 866.7 34.3 883.3 35.2L900 36L900 301L883.3 301C866.7 301 833.3 301 800 301C766.7 301 733.3 301 700 301C666.7 301 633.3 301 600 301C566.7 301 533.3 301 500 301C466.7 301 433.3 301 400 301C366.7 301 333.3 301 300 301C266.7 301 233.3 301 200 301C166.7 301 133.3 301 100 301C66.7 301 33.3 301 16.7 301L0 301Z" fill="#bc00b2"></path><path d="M0 107L16.7 102.3C33.3 97.7 66.7 88.3 100 85.3C133.3 82.3 166.7 85.7 200 84.8C233.3 84 266.7 79 300 80.8C333.3 82.7 366.7 91.3 400 96.3C433.3 101.3 466.7 102.7 500 104.7C533.3 106.7 566.7 109.3 600 109.2C633.3 109 666.7 106 700 108.8C733.3 111.7 766.7 120.3 800 125.7C833.3 131 866.7 133 883.3 134L900 135L900 301L883.3 301C866.7 301 833.3 301 800 301C766.7 301 733.3 301 700 301C666.7 301 633.3 301 600 301C566.7 301 533.3 301 500 301C466.7 301 433.3 301 400 301C366.7 301 333.3 301 300 301C266.7 301 233.3 301 200 301C166.7 301 133.3 301 100 301C66.7 301 33.3 301 16.7 301L0 301Z" fill="#a80dbd"></path><path d="M0 171L16.7 165.3C33.3 159.7 66.7 148.3 100 141.7C133.3 135 166.7 133 200 139.3C233.3 145.7 266.7 160.3 300 162.7C333.3 165 366.7 155 400 149.8C433.3 144.7 466.7 144.3 500 139.5C533.3 134.7 566.7 125.3 600 133.3C633.3 141.3 666.7 166.7 700 173.2C733.3 179.7 766.7 167.3 800 163C833.3 158.7 866.7 162.3 883.3 164.2L900 166L900 301L883.3 301C866.7 301 833.3 301 800 301C766.7 301 733.3 301 700 301C666.7 301 633.3 301 600 301C566.7 301 533.3 301 500 301C466.7 301 433.3 301 400 301C366.7 301 333.3 301 300 301C266.7 301 233.3 301 200 301C166.7 301 133.3 301 100 301C66.7 301 33.3 301 16.7 301L0 301Z" fill="#901bc8"></path><path d="M0 234L16.7 223.3C33.3 212.7 66.7 191.3 100 188.5C133.3 185.7 166.7 201.3 200 202C233.3 202.7 266.7 188.3 300 181.3C333.3 174.3 366.7 174.7 400 181.2C433.3 187.7 466.7 200.3 500 209.7C533.3 219 566.7 225 600 223.2C633.3 221.3 666.7 211.7 700 205.8C733.3 200 766.7 198 800 192C833.3 186 866.7 176 883.3 171L900 166L900 301L883.3 301C866.7 301 833.3 301 800 301C766.7 301 733.3 301 700 301C666.7 301 633.3 301 600 301C566.7 301 533.3 301 500 301C466.7 301 433.3 301 400 301C366.7 301 333.3 301 300 301C266.7 301 233.3 301 200 301C166.7 301 133.3 301 100 301C66.7 301 33.3 301 16.7 301L0 301Z" fill="#7027d3"></path><path d="M0 223L16.7 228.2C33.3 233.3 66.7 243.7 100 243.8C133.3 244 166.7 234 200 234.3C233.3 234.7 266.7 245.3 300 246.7C333.3 248 366.7 240 400 235.3C433.3 230.7 466.7 229.3 500 228.8C533.3 228.3 566.7 228.7 600 231.7C633.3 234.7 666.7 240.3 700 242.3C733.3 244.3 766.7 242.7 800 242.8C833.3 243 866.7 245 883.3 246L900 247L900 301L883.3 301C866.7 301 833.3 301 800 301C766.7 301 733.3 301 700 301C666.7 301 633.3 301 600 301C566.7 301 533.3 301 500 301C466.7 301 433.3 301 400 301C366.7 301 333.3 301 300 301C266.7 301 233.3 301 200 301C166.7 301 133.3 301 100 301C66.7 301 33.3 301 16.7 301L0 301Z" fill="#3c31dd"></path></svg>